<?xml version="1.0" standalone="no"?>
<!DOCTYPE svg PUBLIC "-//W3C//DTD SVG 20010904//EN"
 "http://www.w3.org/TR/2001/REC-SVG-20010904/DTD/svg10.dtd">
<svg version="1.0" xmlns="http://www.w3.org/2000/svg"
 width="307.000000pt" height="189.000000pt" viewBox="0 0 307.000000 189.000000"
 preserveAspectRatio="xMidYMid meet">

<g transform="translate(0.000000,189.000000) scale(0.100000,-0.100000)"
fill="#000000" stroke="none">
<path d="M98 1798 c21 -11 22 -16 22 -154 0 -136 -1 -144 -22 -158 -21 -15
-19 -16 42 -16 63 1 64 1 38 16 -26 13 -28 19 -28 74 l0 60 35 0 c75 0 125 38
125 95 0 66 -50 95 -162 94 -60 0 -69 -2 -50 -11z m156 -29 c58 -46 19 -129
-61 -129 l-43 0 0 75 0 75 39 0 c24 0 48 -8 65 -21z"/>
<path d="M2198 1799 c21 -12 22 -17 22 -159 0 -142 -1 -147 -22 -158 -19 -10
-5 -11 70 -9 89 2 95 3 118 30 41 47 26 121 -27 139 -10 4 -7 11 11 25 32 27
33 84 2 115 -18 18 -35 22 -109 25 -72 3 -84 1 -65 -8z m152 -29 c27 -27 26
-75 -2 -94 -12 -9 -39 -16 -60 -16 l-38 0 0 65 0 65 40 0 c27 0 47 -7 60 -20z
m5 -155 c31 -30 33 -77 4 -106 -15 -15 -30 -19 -62 -17 l-42 3 -3 73 -3 72 41
0 c30 0 47 -6 65 -25z"/>
<path d="M634 1700 c-58 -23 -83 -115 -49 -180 36 -69 125 -68 161 2 47 91
-28 211 -112 178z m51 -16 c25 -10 45 -58 45 -109 0 -35 -6 -52 -25 -70 -30
-31 -37 -31 -71 -2 -22 19 -28 34 -32 80 -7 84 25 123 83 101z"/>
<path d="M1343 1700 c-63 -25 -84 -143 -37 -199 34 -41 75 -42 115 -2 16 16
29 34 29 40 0 5 -11 -1 -25 -14 -51 -52 -105 -26 -120 58 l-7 37 76 0 c42 0
76 3 76 8 0 13 -40 72 -49 72 -5 0 -15 2 -23 4 -7 3 -23 1 -35 -4z m51 -26
c31 -30 20 -44 -34 -44 -54 0 -62 10 -33 42 20 22 46 23 67 2z"/>
<path d="M1555 1686 c-14 -14 -25 -31 -25 -38 0 -22 28 -55 64 -78 40 -24 53
-54 35 -76 -21 -26 -62 -13 -81 26 l-18 35 0 -43 c0 -24 4 -41 9 -38 5 3 23 3
40 0 25 -5 29 -9 20 -20 -9 -11 -8 -19 6 -34 18 -20 15 -20 -711 -20 -705 0
-730 -1 -761 -20 -57 -34 -63 -59 -63 -260 0 -201 6 -226 63 -260 31 -19 56
-20 855 -20 l824 0 -112 -120 c-102 -108 -121 -140 -87 -140 7 0 71 59 142
130 l130 130 75 0 76 0 142 -387 c79 -214 148 -401 156 -417 l12 -29 24 39
c13 21 53 84 88 138 l64 99 106 -106 107 -107 105 105 104 104 -107 109 -108
109 131 87 c71 47 130 90 130 94 0 4 -71 34 -157 66 -87 33 -176 68 -198 78
l-40 18 180 0 c161 0 183 2 212 20 57 34 63 59 63 260 0 201 -6 226 -63 260
-30 18 -52 20 -296 20 -262 0 -264 0 -246 20 17 18 15 50 -3 50 -4 0 -23 -16
-42 -35 l-34 -35 -158 0 -158 0 0 115 c0 97 -3 117 -16 122 -27 10 -34 -17
-34 -129 l0 -108 -156 0 -157 0 -32 34 c-32 34 -32 35 -14 52 11 9 19 30 19
46 0 22 -10 35 -49 63 -51 37 -64 55 -55 79 14 35 57 28 79 -13 l14 -26 1 33
c0 25 -4 32 -19 32 -11 0 -26 3 -35 6 -9 3 -26 -5 -41 -20z m212 -431 c49 -52
97 -95 106 -95 35 0 15 37 -60 112 l-78 78 133 0 132 0 0 -53 c0 -55 13 -79
36 -70 10 4 14 23 14 64 l0 59 132 0 133 0 -79 -79 c-54 -55 -77 -84 -73 -95
4 -9 12 -16 19 -16 8 0 56 43 108 95 l95 95 292 0 292 0 20 -26 c20 -25 21
-40 21 -208 0 -148 -3 -186 -16 -204 -15 -22 -18 -22 -274 -22 l-260 0 -87 33
c-355 136 -415 158 -419 154 -4 -4 2 -22 44 -134 l20 -52 -72 -3 c-39 -2 -459
-1 -934 2 -840 5 -864 6 -878 24 -11 16 -14 61 -14 208 0 175 1 189 20 208 20
20 33 20 779 20 l759 0 89 -95z m480 -339 c49 -19 207 -80 353 -136 146 -56
270 -105 277 -108 6 -4 -39 -41 -108 -87 l-118 -80 58 -60 c32 -33 81 -85 109
-115 l50 -54 -61 -63 c-33 -35 -66 -63 -73 -63 -7 0 -58 48 -113 107 -87 93
-102 106 -114 93 -8 -8 -45 -64 -82 -124 -63 -99 -69 -106 -78 -85 -31 84
-161 436 -222 604 -40 110 -78 212 -84 227 l-10 27 64 -24 c36 -14 104 -40
152 -59z"/>
<path d="M1431 1041 c-8 -5 -11 -16 -8 -25 6 -14 32 -16 201 -16 196 0 221 5
196 35 -10 12 -47 15 -194 15 -99 0 -187 -4 -195 -9z"/>
<path d="M1797 1696 c-47 -24 -34 -80 28 -124 32 -23 45 -38 45 -56 0 -48 -71
-46 -89 2 l-9 27 -1 -32 c-1 -29 2 -33 33 -38 47 -9 73 1 83 33 14 42 6 58
-48 92 -36 24 -49 38 -49 56 0 48 61 49 80 1 8 -20 9 -19 9 9 1 28 -3 32 -29
36 -17 3 -40 0 -53 -6z"/>
<path d="M2497 1698 c-25 -9 -47 -51 -34 -64 11 -11 27 7 27 30 0 32 35 41 61
15 27 -27 21 -49 -21 -72 -54 -29 -80 -58 -80 -87 0 -51 48 -67 91 -30 24 20
16 27 -10 11 -21 -13 -51 5 -51 30 0 26 44 69 71 69 20 0 21 -4 16 -41 -9 -70
21 -113 52 -75 9 11 7 15 -9 19 -18 5 -20 13 -20 84 0 105 -26 135 -93 111z"/>
<path d="M2802 1694 c-30 -21 -28 -29 10 -29 34 0 46 16 25 33 -10 9 -19 8
-35 -4z"/>
<path d="M390 1685 c-18 -11 -21 -14 -8 -15 36 0 38 -161 2 -187 -16 -11 -11
-13 36 -13 52 0 54 1 32 16 -19 13 -22 24 -22 82 1 76 16 105 51 100 16 -2 25
3 27 15 5 27 -33 21 -57 -9 l-21 -27 0 27 c0 30 -5 31 -40 11z"/>
<path d="M840 1680 c-26 -26 -26 -77 0 -105 l20 -22 -20 -18 c-23 -21 -26 -41
-7 -48 8 -3 3 -11 -13 -24 -21 -18 -22 -23 -11 -37 18 -22 128 -22 159 0 45
31 22 65 -53 75 -64 8 -70 12 -62 34 4 9 18 15 36 15 46 0 74 29 74 78 0 29 4
42 13 42 8 0 14 4 14 9 0 8 -69 21 -111 21 -11 0 -28 -9 -39 -20z m84 -12 c19
-27 21 -79 4 -96 -40 -40 -101 33 -78 94 12 31 53 32 74 2z m42 -201 c4 -3 4
-13 1 -22 -5 -11 -21 -15 -66 -15 -63 0 -81 11 -60 37 10 11 26 14 66 11 29
-3 56 -7 59 -11z"/>
<path d="M1090 1685 c-18 -11 -21 -14 -8 -15 36 0 38 -161 2 -187 -16 -11 -11
-13 36 -13 52 0 54 1 32 16 -19 13 -22 24 -22 82 1 76 16 105 51 100 16 -2 25
3 27 15 5 27 -33 21 -57 -9 l-21 -27 0 27 c0 30 -5 31 -40 11z"/>
<path d="M2721 1686 c-23 -13 -23 -13 -2 -19 19 -5 21 -12 21 -85 0 -72 -2
-83 -22 -96 -21 -15 -20 -16 37 -15 33 0 53 3 45 6 -8 3 -21 12 -27 21 -15 18
-17 115 -4 140 9 18 -3 62 -16 62 -4 -1 -19 -7 -32 -14z"/>
</g>
</svg>
